<svg height="480pt" viewBox="-68 0 480 480" width="480pt" xmlns="http://www.w3.org/2000/svg"><path d="m72 312h144v64h-144zm0 0" fill="#78b9eb"/><path d="m239.992188 123.734375-30.390626 22.28125 11.582032-35.902344-30.429688-22.113281h37.644532l11.601562-35.976562 11.617188 36 37.628906-.023438-30.460938 22.152344 4.03125 12.351562 7.582032 23.511719zm0 0" fill="#78b9eb"/><g fill="#1a6fb0"><path d="m312.640625 16.71875c-24-11.625-52-11.625-76 0-9.652344 5.085938-20.457031 7.589844-31.359375 7.28125-10.878906.300781-21.652344-2.207031-31.28125-7.28125-6.96875-3.433594-14.367188-5.910156-22-7.359375v-9.359375h-16v304h-64c-4.417969 0-8 3.582031-8 8v56h-40c-4.417969 0-8 3.582031-8 8v88h-16v16h288v-16h-16v-88c0-4.417969-3.582031-8-8-8h-40v-56c0-4.417969-3.582031-8-8-8h-64v-126.398438c5.285156 1.328126 10.410156 3.234376 15.28125 5.679688 11.75 6 24.804688 8.996094 38 8.71875 13.21875.285156 26.300781-2.710938 38.078125-8.71875 19.753906-9.707031 42.886719-9.707031 62.640625 0 11.75 6.007812 24.804688 9.003906 38 8.71875v-168c-10.90625.308594-21.707031-2.195312-31.359375-7.28125zm-56.640625 367.28125v80h-224v-80zm-48-64v48h-128v-48zm120-145.601562c-5.3125-1.328126-10.460938-3.234376-15.359375-5.679688-24-11.625-52-11.625-76 0-9.652344 5.085938-20.457031 7.589844-31.359375 7.28125-10.878906.300781-21.652344-2.207031-31.28125-7.28125-6.96875-3.433594-14.367188-5.910156-22-7.359375v-135.757813c5.285156 1.328126 10.410156 3.234376 15.28125 5.679688 11.75 6 24.804688 8.996094 38 8.71875 13.21875.285156 26.300781-2.710938 38.078125-8.71875 19.753906-9.707031 42.886719-9.707031 62.640625 0 6.960938 3.445312 14.363281 5.921875 22 7.359375zm0 0"/><path d="m296.878906 85.519531c-1.089844-3.277343-4.144531-5.496093-7.597656-5.519531h-31.839844l-9.839844-30.238281c-1.082031-3.285157-4.144531-5.503907-7.601562-5.503907s-6.519531 2.21875-7.601562 5.503907l-9.839844 30.238281h-31.839844c-3.457031.023438-6.511719 2.265625-7.566406 5.558594-1.054688 3.292968.125 6.894531 2.925781 8.921875l25.683594 18.71875-9.839844 30.242187c-1.03125 3.289063.160156 6.863282 2.957031 8.878906 2.773438 2.078126 6.585938 2.078126 9.359375 0l25.761719-18.640624 25.761719 18.640624c2.753906 2.132813 6.601562 2.132813 9.359375 0 2.796875-2.015624 3.988281-5.589843 2.957031-8.878906l-9.839844-30.242187 25.683594-18.71875c2.792969-2.050781 3.980469-5.648438 2.957031-8.960938zm-45.679687 27.039063 4 12.402344-10.480469-7.679688c-2.820312-2.027344-6.617188-2.027344-9.4375 0l-10.480469 7.679688 4-12.402344c1.066407-3.269532-.097656-6.855469-2.878906-8.878906l-10.5625-7.679688h13.039063c3.453124-.023438 6.511718-2.242188 7.601562-5.519531l4-12.402344 4 12.402344c1.089844 3.277343 4.148438 5.496093 7.601562 5.519531h13.039063l-10.5625 7.679688c-2.78125 2.023437-3.945313 5.609374-2.878906 8.878906zm0 0"/></g></svg>